<svg width="107" height="78" viewBox="0 0 107 78" fill="none" xmlns="http://www.w3.org/2000/svg">
<g filter="url(#filter0_d_2242_1798)">
<rect x="4" width="51" height="70" rx="5.91304" fill="white"/>
<path d="M17.1462 8.54199L12.5056 22.6865H8.76732L15.1072 5.62402L17.4861 5.62402L17.1462 8.54199ZM21.0017 22.6865L16.3494 8.54199L15.9744 5.62402H18.3767L24.7517 22.6865L21.0017 22.6865ZM20.7908 16.335V19.0889H11.779V16.335H20.7908Z" fill="#37474F"/>
<path fill-rule="evenodd" clip-rule="evenodd" d="M33.2289 41.5501C36.7106 41.5971 38.8525 38.9176 37.6744 36.0972C36.4962 33.2766 35.3217 32.6421 33.4723 30.5972C31.622 28.5524 28.9314 25.015 28.9441 24.1807C28.9577 25.015 26.378 28.5524 24.5276 30.5972C22.6782 32.6421 21.5046 33.2766 20.3255 36.0972C19.1474 38.9176 21.2902 41.5971 24.7711 41.5501C27.161 41.5178 28.2365 39.8687 28.6752 38.8376L28.6752 40.187C28.6752 40.187 27.9122 45.0545 22.5274 45.5874L21.669 45.5874L21.669 46.3459L36.3318 46.3459L36.3318 45.5874L35.4725 45.5874C30.0886 45.0545 29.3247 40.187 29.3247 40.187L29.3247 39.0148C29.8416 40.047 30.9716 41.5196 33.2289 41.5501Z" fill="#37474F"/>
</g>
<g filter="url(#filter1_d_2242_1798)">
<rect x="28" width="51" height="70" rx="5.91304" fill="white"/>
<path d="M46.7009 20.0498V22.6865L35.029 22.6865V20.4365L40.5486 14.5186C41.1033 13.9014 41.5408 13.3584 41.8611 12.8896C42.1814 12.4131 42.4119 11.9873 42.5525 11.6123C42.7009 11.2295 42.7751 10.8662 42.7751 10.5225C42.7751 10.0068 42.6892 9.56543 42.5173 9.19824C42.3454 8.82324 42.0915 8.53418 41.7556 8.33105C41.4275 8.12793 41.0212 8.02637 40.5369 8.02637C40.0212 8.02637 39.5759 8.15137 39.2009 8.40137C38.8337 8.65137 38.5525 8.99902 38.3572 9.44434C38.1697 9.88965 38.0759 10.3936 38.0759 10.9561L34.6892 10.9561C34.6892 9.94043 34.9314 9.01074 35.4158 8.16699C35.9001 7.31543 36.5837 6.63965 37.4665 6.13965C38.3494 5.63184 39.3962 5.37793 40.6072 5.37793C41.8025 5.37793 42.8103 5.57324 43.6306 5.96387C44.4587 6.34668 45.0837 6.90137 45.5056 7.62793C45.9353 8.34668 46.1501 9.20605 46.1501 10.2061C46.1501 10.7686 46.0603 11.3193 45.8806 11.8584C45.7009 12.3896 45.4431 12.9209 45.1072 13.4521C44.779 13.9756 44.3806 14.5068 43.9119 15.0459C43.4431 15.585 42.9236 16.1436 42.3533 16.7217L39.3884 20.0498L46.7009 20.0498Z" fill="#A1910A"/>
<path fill-rule="evenodd" clip-rule="evenodd" d="M43 35.7663L53 46.3452L63 35.7663L53 25.1875L43 35.7663Z" fill="#A1910A"/>
</g>
<g filter="url(#filter2_d_2242_1798)">
<rect x="52" width="51" height="70" rx="6.23818" fill="white" shape-rendering="crispEdges"/>
<rect x="54" y="2" width="47" height="66" rx="4.67864" fill="#37474F"/>
<path d="M74.6333 51.5674L74.4966 52.5977C74.4494 52.5846 74.4022 52.5757 74.355 52.5708C74.3078 52.5659 74.2606 52.5635 74.2134 52.5635C74.0929 52.5635 73.9782 52.5798 73.8691 52.6123C73.7601 52.6432 73.6632 52.6912 73.5786 52.7563C73.4956 52.8215 73.4289 52.9028 73.3784 53.0005C73.3296 53.0981 73.3052 53.2129 73.3052 53.3447C73.3052 53.4294 73.3182 53.5026 73.3442 53.5645C73.3719 53.6263 73.4102 53.6776 73.459 53.7183C73.5078 53.759 73.5656 53.7891 73.6323 53.8086C73.6991 53.8281 73.7723 53.8379 73.8521 53.8379C73.9123 53.8379 73.9749 53.8314 74.04 53.8184C74.1051 53.8053 74.1694 53.7882 74.2329 53.7671C74.2964 53.7459 74.3582 53.7215 74.4185 53.6938C74.4787 53.6662 74.534 53.6377 74.5845 53.6084L74.4868 54.7559C74.4233 54.7884 74.3542 54.8177 74.2793 54.8438C74.2061 54.8682 74.1304 54.8901 74.0522 54.9097C73.9741 54.9276 73.896 54.9414 73.8179 54.9512C73.7397 54.9609 73.6649 54.9658 73.5933 54.9658C73.3866 54.9658 73.1937 54.9276 73.0146 54.8511C72.8356 54.7746 72.6802 54.6696 72.5483 54.5361C72.4165 54.4027 72.3123 54.2456 72.2358 54.0649C72.161 53.8826 72.1235 53.6865 72.1235 53.4766C72.1235 53.1982 72.1634 52.9362 72.2432 52.6904C72.3229 52.443 72.4401 52.2266 72.5947 52.041C72.7493 51.8555 72.9406 51.709 73.1685 51.6016C73.3979 51.4941 73.6616 51.4404 73.9595 51.4404C74.0718 51.4404 74.1865 51.4494 74.3037 51.4673C74.4225 51.4852 74.5324 51.5186 74.6333 51.5674ZM77.8657 54.79L76.6548 54.9463L76.5083 54.3945H75.9517L75.8296 54.9463L74.5845 54.8242L75.5562 51.5723L76.9136 51.5039L77.8657 54.79ZM76.4204 53.6475L76.2349 52.7979L76.0542 53.6475H76.4204ZM80.7588 54.1309C80.7588 54.266 80.7336 54.3823 80.6831 54.48C80.6343 54.5776 80.5684 54.6606 80.4854 54.729C80.4023 54.7974 80.3063 54.8535 80.1973 54.8975C80.0898 54.9398 79.9775 54.9731 79.8604 54.9976C79.7432 55.022 79.6252 55.0382 79.5063 55.0464C79.3892 55.0545 79.2793 55.0586 79.1768 55.0586C79.0758 55.0586 78.9709 55.0545 78.8618 55.0464C78.7544 55.0399 78.647 55.0277 78.5396 55.0098C78.4321 54.9919 78.3263 54.9683 78.2222 54.939C78.118 54.908 78.0195 54.8698 77.9268 54.8242L77.9219 51.6797C78.013 51.6423 78.1099 51.6089 78.2124 51.5796C78.3149 51.5487 78.4191 51.5234 78.5249 51.5039C78.6323 51.4827 78.7389 51.4673 78.8447 51.4575C78.9505 51.4461 79.0531 51.4404 79.1523 51.4404C79.2679 51.4404 79.3843 51.4478 79.5015 51.4624C79.6203 51.4771 79.7342 51.5015 79.8433 51.5356C79.9523 51.5698 80.054 51.6146 80.1484 51.6699C80.2428 51.7236 80.325 51.7904 80.395 51.8701C80.4666 51.9499 80.522 52.0426 80.561 52.1484C80.6017 52.2542 80.6221 52.3763 80.6221 52.5146C80.6221 52.6058 80.609 52.6912 80.583 52.771C80.557 52.8507 80.5195 52.9224 80.4707 52.9858C80.4219 53.0493 80.3625 53.1038 80.2925 53.1494C80.2225 53.1934 80.1436 53.2259 80.0557 53.2471C80.1615 53.2747 80.2575 53.3154 80.3438 53.3691C80.4316 53.4229 80.5057 53.488 80.5659 53.5645C80.6278 53.641 80.675 53.7272 80.7075 53.8232C80.7417 53.9193 80.7588 54.0218 80.7588 54.1309ZM79.5186 52.7393C79.5186 52.6921 79.5088 52.6522 79.4893 52.6196C79.4697 52.5854 79.4453 52.5578 79.416 52.5366C79.3883 52.5155 79.3574 52.5 79.3232 52.4902C79.2907 52.4805 79.2614 52.4756 79.2354 52.4756C79.2028 52.4756 79.1711 52.4805 79.1401 52.4902C79.1092 52.5 79.0791 52.5114 79.0498 52.5244L79.0352 53.0664C79.0726 53.0664 79.119 53.0632 79.1743 53.0566C79.2297 53.0501 79.2826 53.0363 79.333 53.0151C79.3851 52.9924 79.429 52.9598 79.4648 52.9175C79.5007 52.8735 79.5186 52.8141 79.5186 52.7393ZM79.1719 53.5352C79.1247 53.5352 79.0791 53.54 79.0352 53.5498L79.0254 54.1064C79.0498 54.1113 79.0734 54.1162 79.0962 54.1211C79.1206 54.1243 79.1442 54.126 79.167 54.126C79.2012 54.126 79.2386 54.1227 79.2793 54.1162C79.32 54.1081 79.3582 54.0934 79.394 54.0723C79.4299 54.0495 79.4591 54.0194 79.4819 53.9819C79.5063 53.9445 79.5186 53.8949 79.5186 53.833C79.5186 53.7712 79.5063 53.7207 79.4819 53.6816C79.4591 53.6426 79.4307 53.6125 79.3965 53.5913C79.3623 53.5685 79.3249 53.5539 79.2842 53.5474C79.2435 53.5392 79.2061 53.5352 79.1719 53.5352ZM83.8643 53.2764C83.8643 53.4245 83.8472 53.5677 83.813 53.7061C83.7788 53.8428 83.7292 53.9714 83.6641 54.0918C83.6006 54.2122 83.5225 54.3229 83.4297 54.4238C83.3385 54.5231 83.2352 54.6086 83.1196 54.6802C83.0057 54.7518 82.8812 54.8079 82.7461 54.8486C82.611 54.8877 82.4678 54.9072 82.3164 54.9072C82.1699 54.9072 82.0299 54.8885 81.8965 54.8511C81.7646 54.8136 81.641 54.7616 81.5254 54.6948C81.4098 54.6265 81.3049 54.5451 81.2104 54.4507C81.1177 54.3547 81.0379 54.2489 80.9712 54.1333C80.9061 54.0161 80.8548 53.8908 80.8174 53.7573C80.7816 53.6239 80.7637 53.4847 80.7637 53.3398C80.7637 53.1982 80.7808 53.0599 80.8149 52.9248C80.8491 52.7881 80.8979 52.6595 80.9614 52.5391C81.0265 52.4186 81.1047 52.3079 81.1958 52.207C81.2869 52.1061 81.3887 52.019 81.501 51.9458C81.6149 51.8726 81.7378 51.8156 81.8696 51.7749C82.0015 51.7342 82.1406 51.7139 82.2871 51.7139C82.5231 51.7139 82.738 51.7505 82.9316 51.8237C83.127 51.897 83.293 52.002 83.4297 52.1387C83.568 52.2738 83.6746 52.4382 83.7495 52.6318C83.826 52.8239 83.8643 53.0387 83.8643 53.2764ZM82.7803 53.3398C82.7803 53.2699 82.7697 53.2023 82.7485 53.1372C82.729 53.0705 82.6997 53.0119 82.6606 52.9614C82.6216 52.9093 82.5728 52.8678 82.5142 52.8369C82.4572 52.8044 82.3913 52.7881 82.3164 52.7881C82.2399 52.7881 82.1715 52.8019 82.1113 52.8296C82.0511 52.8573 81.999 52.8955 81.9551 52.9443C81.9128 52.9915 81.8802 53.0477 81.8574 53.1128C81.8346 53.1763 81.8232 53.2438 81.8232 53.3154C81.8232 53.3838 81.833 53.4521 81.8525 53.5205C81.8721 53.5889 81.9014 53.6507 81.9404 53.7061C81.9795 53.7614 82.0275 53.8062 82.0845 53.8403C82.1431 53.8745 82.2106 53.8916 82.2871 53.8916C82.3636 53.8916 82.432 53.877 82.4922 53.8477C82.554 53.8167 82.6061 53.776 82.6484 53.7256C82.6908 53.6735 82.7233 53.6141 82.7461 53.5474C82.7689 53.4806 82.7803 53.4115 82.7803 53.3398Z" fill="#F5F5F5" fill-opacity="0.4"/>
<path d="M77.0097 20.29C64.7807 20.29 54.9424 26.6298 54.9424 34.4835C54.9424 42.3372 64.7807 48.677 77.0097 48.677C89.2387 48.677 99.077 42.3372 99.077 34.4835C99.077 26.7244 89.2387 20.29 77.0097 20.29Z" fill="#37474F"/>
<path d="M77.0096 22.1826C66.0679 22.1826 56.7812 27.7654 56.7812 34.4836C56.7812 41.1073 66.0679 46.7846 77.0096 46.7846C87.9513 46.7846 97.238 41.2019 97.238 34.4836C97.238 27.7654 87.9513 22.1826 77.0096 22.1826ZM92.6406 39.6879C91.4453 40.7288 89.8822 42.2427 88.0433 42.9997C91.0775 38.4578 85.1929 36.1868 82.5264 41.1073C81.515 37.1331 78.021 39.8772 77.0096 44.8922C75.9982 39.8772 72.5042 37.1331 71.4928 41.1073C68.8263 36.1868 62.9417 38.4578 65.976 42.9997C64.137 42.2427 62.5739 40.7288 61.3786 39.5933C59.7236 37.9847 58.7121 36.0922 58.6202 34.2944C58.7121 30.3202 63.1256 26.5353 69.6538 25.0213C65.0565 31.2664 72.5042 35.7137 73.7915 30.131L74.3431 24.5482L75.6304 25.9675H77.0096H78.3888L79.6761 24.5482L80.2278 30.131C81.515 35.6191 88.9627 31.2664 84.3654 25.0213C90.8936 26.6299 95.3071 30.4148 95.399 34.389C95.3071 36.1868 94.2957 38.0793 92.6406 39.6879Z" fill="#FFEB3B"/>
</g>
<defs>
<filter id="filter0_d_2242_1798" x="0" y="0" width="59" height="78" filterUnits="userSpaceOnUse" color-interpolation-filters="sRGB">
<feFlood flood-opacity="0" result="BackgroundImageFix"/>
<feColorMatrix in="SourceAlpha" type="matrix" values="0 0 0 0 0 0 0 0 0 0 0 0 0 0 0 0 0 0 127 0" result="hardAlpha"/>
<feOffset dy="4"/>
<feGaussianBlur stdDeviation="2"/>
<feComposite in2="hardAlpha" operator="out"/>
<feColorMatrix type="matrix" values="0 0 0 0 0 0 0 0 0 0 0 0 0 0 0 0 0 0 0.25 0"/>
<feBlend mode="normal" in2="BackgroundImageFix" result="effect1_dropShadow_2242_1798"/>
<feBlend mode="normal" in="SourceGraphic" in2="effect1_dropShadow_2242_1798" result="shape"/>
</filter>
<filter id="filter1_d_2242_1798" x="24" y="0" width="59" height="78" filterUnits="userSpaceOnUse" color-interpolation-filters="sRGB">
<feFlood flood-opacity="0" result="BackgroundImageFix"/>
<feColorMatrix in="SourceAlpha" type="matrix" values="0 0 0 0 0 0 0 0 0 0 0 0 0 0 0 0 0 0 127 0" result="hardAlpha"/>
<feOffset dy="4"/>
<feGaussianBlur stdDeviation="2"/>
<feComposite in2="hardAlpha" operator="out"/>
<feColorMatrix type="matrix" values="0 0 0 0 0 0 0 0 0 0 0 0 0 0 0 0 0 0 0.25 0"/>
<feBlend mode="normal" in2="BackgroundImageFix" result="effect1_dropShadow_2242_1798"/>
<feBlend mode="normal" in="SourceGraphic" in2="effect1_dropShadow_2242_1798" result="shape"/>
</filter>
<filter id="filter2_d_2242_1798" x="48" y="0" width="59" height="78" filterUnits="userSpaceOnUse" color-interpolation-filters="sRGB">
<feFlood flood-opacity="0" result="BackgroundImageFix"/>
<feColorMatrix in="SourceAlpha" type="matrix" values="0 0 0 0 0 0 0 0 0 0 0 0 0 0 0 0 0 0 127 0" result="hardAlpha"/>
<feOffset dy="4"/>
<feGaussianBlur stdDeviation="2"/>
<feComposite in2="hardAlpha" operator="out"/>
<feColorMatrix type="matrix" values="0 0 0 0 0 0 0 0 0 0 0 0 0 0 0 0 0 0 0.25 0"/>
<feBlend mode="normal" in2="BackgroundImageFix" result="effect1_dropShadow_2242_1798"/>
<feBlend mode="normal" in="SourceGraphic" in2="effect1_dropShadow_2242_1798" result="shape"/>
</filter>
</defs>
</svg>
