<svg id="Group_2" data-name="Group 2" xmlns="http://www.w3.org/2000/svg" width="160.6" height="188.3" viewBox="0 0 160.6 188.3">
  <g id="Group_1" data-name="Group 1">
    <path id="Path_1" data-name="Path 1" d="M160.6,109.4l-44.3,78.9L30.7,159.1,0,78.9,44.3,0l85.6,29.2h0Z" fill="#37cc03"/>
    <path id="Path_2" data-name="Path 2" d="M44.3,0,30.7,159.1,0,78.9Z" fill="#37cc03"/>
    <path id="Path_3" data-name="Path 3" d="M44.3,0l72,188.3L30.7,159.1Z" fill="#37ac03"/>
    <path id="Path_4" data-name="Path 4" d="M44.3,0,160.6,109.4l-44.3,78.9Z" fill="#269303"/>
    <path id="Path_5" data-name="Path 5" d="M44.3,0,160.6,109.4,129.9,29.2Z" fill="#267f03"/>
    <path id="Path_6" data-name="Path 6" d="M129.9,29.2,113.7,65.3,36.1,95,0,78.9,44.3,0Z" fill="#fff" opacity="0.4"/>
  </g>
  <path id="Path_7" data-name="Path 7" d="M36.1,95l80.2,93.3L30.7,159.1Z" fill="#269303"/>
  <path id="Path_8" data-name="Path 8" d="M160.6,109.4l-44.3,78.9-2.6-123Z" fill="#37ac03"/>
  <path id="Path_9" data-name="Path 9" d="M129,59.5c-10.1,5.8-10.9,7.6-8.5,19-5.8-10.1-7.6-10.9-19-8.5,10.1-5.8,10.9-7.6,8.5-19C115.8,61.1,117.6,61.9,129,59.5Z" fill="#fff"/>
</svg>
