<svg width="228" height="175" viewBox="0 0 228 175" fill="none" xmlns="http://www.w3.org/2000/svg">
<g filter="url(#filter0_dd_32_3855)">
<rect x="17.9999" y="40.7184" width="75.2727" height="102.545" rx="8.51231" transform="rotate(-15 17.9999 40.7184)" fill="white" shape-rendering="crispEdges"/>
<rect x="17.9999" y="40.7184" width="75.2727" height="102.545" rx="8.72727" transform="rotate(-15 17.9999 40.7184)" fill="white"/>
<path d="M36.9532 48.2095L36.2063 61.7219L32.9236 62.6014L34.4761 46.1269L36.5651 45.5672L36.9532 48.2095ZM43.6668 59.7228L36.2535 48.397L35.2376 45.9229L37.3471 45.3576L46.9598 58.8405L43.6668 59.7228ZM41.9871 54.1951L42.6351 56.6133L34.7218 58.7337L34.0738 56.3154L41.9871 54.1951Z" fill="#F24822"/>
<path fill-rule="evenodd" clip-rule="evenodd" d="M55.506 83.7499L70.4853 93.289L78.6882 77.5383L63.7089 67.9993L55.506 83.7499Z" fill="#F24822"/>
</g>
<g filter="url(#filter1_dd_32_3855)">
<rect x="52.9089" y="21.2812" width="75.2727" height="102.545" rx="8.51231" transform="rotate(-0.0341033 52.9089 21.2812)" fill="white" shape-rendering="crispEdges"/>
<rect x="52.9089" y="21.2812" width="75.2727" height="102.545" rx="8.72727" transform="rotate(-0.0341033 52.9089 21.2812)" fill="white"/>
<path d="M74.3408 43.8714L74.3422 46.2684L63.7314 46.2748L63.7302 44.2293L68.7447 38.8464C69.2487 38.285 69.6461 37.7911 69.937 37.3648C70.228 36.9314 70.4373 36.5442 70.5649 36.2032C70.6996 35.8551 70.7669 35.5248 70.7667 35.2123C70.7665 34.7436 70.6881 34.3424 70.5316 34.0086C70.3752 33.6678 70.1442 33.4052 69.8387 33.2207C69.5403 33.0362 69.1709 32.9441 68.7306 32.9444C68.2618 32.9447 67.8571 33.0585 67.5163 33.286C67.1826 33.5135 66.9271 33.8297 66.7498 34.2346C66.5796 34.6395 66.4946 35.0977 66.495 35.6091L63.4161 35.6109C63.4156 34.6876 63.6352 33.8423 64.0751 33.075C64.515 32.3006 65.1361 31.6859 65.9384 31.2308C66.7406 30.7687 67.6922 30.5373 68.7931 30.5367C69.8797 30.536 70.796 30.713 71.542 31.0677C72.295 31.4153 72.8635 31.9192 73.2474 32.5795C73.6384 33.2326 73.8342 34.0138 73.8347 34.9229C73.835 35.4342 73.7537 35.935 73.5906 36.4251C73.4275 36.9082 73.1935 37.3913 72.8883 37.8744C72.5903 38.3505 72.2284 38.8336 71.8026 39.3239C71.3767 39.8142 70.9047 40.3223 70.3866 40.8482L67.6931 43.8754L74.3408 43.8714Z" fill="#F24822"/>
<path fill-rule="evenodd" clip-rule="evenodd" d="M78.0307 72.5389L90.0385 85.6227L102.031 72.5246L90.0229 59.4409L78.0307 72.5389Z" fill="#F24822"/>
</g>
<g filter="url(#filter2_dd_32_3855)">
<rect x="95.4246" y="15.3636" width="75.2727" height="102.545" rx="8.51231" transform="rotate(10.2834 95.4246 15.3636)" fill="white" shape-rendering="crispEdges"/>
<rect x="95.4246" y="15.3636" width="75.2727" height="102.545" rx="8.72727" transform="rotate(10.2834 95.4246 15.3636)" fill="white"/>
<path d="M106.31 33.511L107.924 33.8039C108.442 33.8977 108.884 33.8877 109.251 33.7739C109.619 33.6531 109.913 33.4465 110.132 33.1542C110.359 32.8562 110.512 32.4905 110.591 32.0573C110.662 31.6659 110.648 31.3061 110.549 30.9777C110.458 30.6436 110.274 30.3648 109.996 30.1413C109.721 29.9108 109.349 29.7531 108.881 29.6681C108.51 29.6009 108.154 29.6122 107.813 29.7019C107.472 29.7916 107.183 29.9521 106.946 30.1834C106.71 30.4147 106.557 30.719 106.488 31.0964L103.459 30.5468C103.611 29.7082 103.967 29.0185 104.527 28.4777C105.094 27.9382 105.791 27.5628 106.616 27.3516C107.441 27.1404 108.311 27.1178 109.226 27.2839C110.261 27.4715 111.135 27.8035 111.85 28.2796C112.566 28.7488 113.083 29.3442 113.399 30.0657C113.716 30.7872 113.788 31.6232 113.615 32.5735C113.528 33.0557 113.331 33.5037 113.025 33.9173C112.72 34.324 112.325 34.671 111.84 34.9583C111.363 35.2399 110.808 35.4351 110.175 35.544C109.543 35.6459 108.856 35.6296 108.116 35.4952L106.019 35.1148L106.31 33.511ZM105.894 35.8067L106.177 34.2448L108.273 34.6252C109.105 34.776 109.818 35.0029 110.413 35.3057C111.008 35.6085 111.486 35.9767 111.847 36.4105C112.21 36.8372 112.456 37.3113 112.585 37.8328C112.716 38.3473 112.728 38.8946 112.623 39.4746C112.494 40.1874 112.242 40.7986 111.868 41.3082C111.496 41.8108 111.026 42.2093 110.46 42.5036C109.901 42.7992 109.275 42.9888 108.582 43.0722C107.889 43.1487 107.155 43.1166 106.379 42.9759C105.737 42.8592 105.12 42.6571 104.53 42.3696C103.948 42.0763 103.437 41.7058 102.999 41.2582C102.569 40.8048 102.253 40.2783 102.051 39.6787C101.858 39.0733 101.83 38.3933 101.967 37.6386L104.996 38.1882C104.925 38.5796 104.959 38.9467 105.099 39.2897C105.239 39.6327 105.464 39.9226 105.775 40.1594C106.093 40.3975 106.465 40.5552 106.891 40.6326C107.373 40.7201 107.802 40.7075 108.176 40.5949C108.558 40.4766 108.869 40.2732 109.109 39.9847C109.358 39.6905 109.521 39.3268 109.6 38.8935C109.701 38.3345 109.681 37.8688 109.539 37.4966C109.398 37.1175 109.154 36.8133 108.806 36.5841C108.458 36.3549 108.025 36.1934 107.508 36.0995L105.894 35.8067Z" fill="#F24822"/>
<path fill-rule="evenodd" clip-rule="evenodd" d="M110.959 70.2919L120.43 85.3148L134.574 74.5763L125.104 59.5535L110.959 70.2919Z" fill="#F24822"/>
</g>
<g filter="url(#filter3_dd_32_3855)">
<rect x="145.636" y="27.7818" width="75.2727" height="102.545" rx="8.51231" transform="rotate(30 145.636 27.7818)" fill="white" shape-rendering="crispEdges"/>
<rect x="145.636" y="27.7818" width="75.2727" height="102.545" rx="8.72727" transform="rotate(30 145.636 27.7818)" fill="white"/>
<path d="M154.804 55.2504L153.6 57.3355L143.922 51.7478L144.725 50.0587L155.455 44.4072L157.568 45.6271L153.069 48.1349L147.636 51.1116L154.804 55.2504ZM158.14 45.9573L150.384 59.3905L147.727 57.8565L155.483 44.4232L158.14 45.9573Z" fill="#F24822"/>
<path fill-rule="evenodd" clip-rule="evenodd" d="M141.729 84.7307L145.576 102.068L162.514 96.7307L158.667 79.3937L141.729 84.7307Z" fill="#F24822"/>
</g>
<defs>
<filter id="filter0_dd_32_3855" x="-1.63649" y="4.87271" width="138.521" height="157.806" filterUnits="userSpaceOnUse" color-interpolation-filters="sRGB">
<feFlood flood-opacity="0" result="BackgroundImageFix"/>
<feColorMatrix in="SourceAlpha" type="matrix" values="0 0 0 0 0 0 0 0 0 0 0 0 0 0 0 0 0 0 127 0" result="hardAlpha"/>
<feOffset dy="3.27273"/>
<feGaussianBlur stdDeviation="9.81818"/>
<feComposite in2="hardAlpha" operator="out"/>
<feColorMatrix type="matrix" values="0 0 0 0 0 0 0 0 0 0 0 0 0 0 0 0 0 0 0.3 0"/>
<feBlend mode="normal" in2="BackgroundImageFix" result="effect1_dropShadow_32_3855"/>
<feColorMatrix in="SourceAlpha" type="matrix" values="0 0 0 0 0 0 0 0 0 0 0 0 0 0 0 0 0 0 127 0" result="hardAlpha"/>
<feOffset dy="3.27273"/>
<feGaussianBlur stdDeviation="0.545455"/>
<feComposite in2="hardAlpha" operator="out"/>
<feColorMatrix type="matrix" values="0 0 0 0 0 0 0 0 0 0 0 0 0 0 0 0 0 0 0.1 0"/>
<feBlend mode="normal" in2="effect1_dropShadow_32_3855" result="effect2_dropShadow_32_3855"/>
<feBlend mode="normal" in="SourceGraphic" in2="effect2_dropShadow_32_3855" result="shape"/>
</filter>
<filter id="filter1_dd_32_3855" x="33.2726" y="4.87277" width="114.606" height="141.863" filterUnits="userSpaceOnUse" color-interpolation-filters="sRGB">
<feFlood flood-opacity="0" result="BackgroundImageFix"/>
<feColorMatrix in="SourceAlpha" type="matrix" values="0 0 0 0 0 0 0 0 0 0 0 0 0 0 0 0 0 0 127 0" result="hardAlpha"/>
<feOffset dy="3.27273"/>
<feGaussianBlur stdDeviation="9.81818"/>
<feComposite in2="hardAlpha" operator="out"/>
<feColorMatrix type="matrix" values="0 0 0 0 0 0 0 0 0 0 0 0 0 0 0 0 0 0 0.3 0"/>
<feBlend mode="normal" in2="BackgroundImageFix" result="effect1_dropShadow_32_3855"/>
<feColorMatrix in="SourceAlpha" type="matrix" values="0 0 0 0 0 0 0 0 0 0 0 0 0 0 0 0 0 0 127 0" result="hardAlpha"/>
<feOffset dy="3.27273"/>
<feGaussianBlur stdDeviation="0.545455"/>
<feComposite in2="hardAlpha" operator="out"/>
<feColorMatrix type="matrix" values="0 0 0 0 0 0 0 0 0 0 0 0 0 0 0 0 0 0 0.1 0"/>
<feBlend mode="normal" in2="effect1_dropShadow_32_3855" result="effect2_dropShadow_32_3855"/>
<feBlend mode="normal" in="SourceGraphic" in2="effect2_dropShadow_32_3855" result="shape"/>
</filter>
<filter id="filter2_dd_32_3855" x="57.482" y="-1" width="131.642" height="153.608" filterUnits="userSpaceOnUse" color-interpolation-filters="sRGB">
<feFlood flood-opacity="0" result="BackgroundImageFix"/>
<feColorMatrix in="SourceAlpha" type="matrix" values="0 0 0 0 0 0 0 0 0 0 0 0 0 0 0 0 0 0 127 0" result="hardAlpha"/>
<feOffset dy="3.27273"/>
<feGaussianBlur stdDeviation="9.81818"/>
<feComposite in2="hardAlpha" operator="out"/>
<feColorMatrix type="matrix" values="0 0 0 0 0 0 0 0 0 0 0 0 0 0 0 0 0 0 0.3 0"/>
<feBlend mode="normal" in2="BackgroundImageFix" result="effect1_dropShadow_32_3855"/>
<feColorMatrix in="SourceAlpha" type="matrix" values="0 0 0 0 0 0 0 0 0 0 0 0 0 0 0 0 0 0 127 0" result="hardAlpha"/>
<feOffset dy="3.27273"/>
<feGaussianBlur stdDeviation="0.545455"/>
<feComposite in2="hardAlpha" operator="out"/>
<feColorMatrix type="matrix" values="0 0 0 0 0 0 0 0 0 0 0 0 0 0 0 0 0 0 0.1 0"/>
<feBlend mode="normal" in2="effect1_dropShadow_32_3855" result="effect2_dropShadow_32_3855"/>
<feBlend mode="normal" in="SourceGraphic" in2="effect2_dropShadow_32_3855" result="shape"/>
</filter>
<filter id="filter3_dd_32_3855" x="74.7272" y="11.4181" width="155.734" height="165.716" filterUnits="userSpaceOnUse" color-interpolation-filters="sRGB">
<feFlood flood-opacity="0" result="BackgroundImageFix"/>
<feColorMatrix in="SourceAlpha" type="matrix" values="0 0 0 0 0 0 0 0 0 0 0 0 0 0 0 0 0 0 127 0" result="hardAlpha"/>
<feOffset dy="3.27273"/>
<feGaussianBlur stdDeviation="9.81818"/>
<feComposite in2="hardAlpha" operator="out"/>
<feColorMatrix type="matrix" values="0 0 0 0 0 0 0 0 0 0 0 0 0 0 0 0 0 0 0.3 0"/>
<feBlend mode="normal" in2="BackgroundImageFix" result="effect1_dropShadow_32_3855"/>
<feColorMatrix in="SourceAlpha" type="matrix" values="0 0 0 0 0 0 0 0 0 0 0 0 0 0 0 0 0 0 127 0" result="hardAlpha"/>
<feOffset dy="3.27273"/>
<feGaussianBlur stdDeviation="0.545455"/>
<feComposite in2="hardAlpha" operator="out"/>
<feColorMatrix type="matrix" values="0 0 0 0 0 0 0 0 0 0 0 0 0 0 0 0 0 0 0.1 0"/>
<feBlend mode="normal" in2="effect1_dropShadow_32_3855" result="effect2_dropShadow_32_3855"/>
<feBlend mode="normal" in="SourceGraphic" in2="effect2_dropShadow_32_3855" result="shape"/>
</filter>
</defs>
</svg>
